<svg width="200.000000" height="171.666290" viewBox="0 0 200 171.666" fill="none" xmlns="http://www.w3.org/2000/svg" xmlns:xlink="http://www.w3.org/1999/xlink">
	<desc>
			Created with Pixso.
	</desc>
	<defs>
		<filter id="filter_2_3_dd" x="24.068207" y="27.015091" width="154.150787" height="98.818207" filterUnits="userSpaceOnUse" color-interpolation-filters="sRGB">
			<feFlood flood-opacity="0" result="BackgroundImageFix"/>
			<feColorMatrix in="SourceAlpha" type="matrix" values="0 0 0 0 0 0 0 0 0 0 0 0 0 0 0 0 0 0 127 0" result="hardAlpha"/>
			<feOffset dx="0" dy="4"/>
			<feGaussianBlur stdDeviation="2"/>
			<feComposite in2="hardAlpha" operator="out" k2="-1" k3="1"/>
			<feColorMatrix type="matrix" values="0 0 0 0 0 0 0 0 0 0 0 0 0 0 0 0 0 0 0.25 0"/>
			<feBlend mode="normal" in2="BackgroundImageFix" result="effect_dropShadow_1"/>
			<feBlend mode="normal" in="SourceGraphic" in2="effect_dropShadow_1" result="shape"/>
		</filter>
		<filter id="filter_2_5_dd" x="30.068207" y="34.015091" width="142.150787" height="81.818207" filterUnits="userSpaceOnUse" color-interpolation-filters="sRGB">
			<feFlood flood-opacity="0" result="BackgroundImageFix"/>
			<feColorMatrix in="SourceAlpha" type="matrix" values="0 0 0 0 0 0 0 0 0 0 0 0 0 0 0 0 0 0 127 0" result="hardAlpha"/>
			<feOffset dx="0" dy="4"/>
			<feGaussianBlur stdDeviation="2"/>
			<feComposite in2="hardAlpha" operator="out" k2="-1" k3="1"/>
			<feColorMatrix type="matrix" values="0 0 0 0 0 0 0 0 0 0 0 0 0 0 0 0 0 0 0.25 0"/>
			<feBlend mode="normal" in2="BackgroundImageFix" result="effect_dropShadow_1"/>
			<feBlend mode="normal" in="SourceGraphic" in2="effect_dropShadow_1" result="shape"/>
		</filter>
		<filter id="filter_2_7_dd" x="30.068207" y="32.015091" width="142.150787" height="81.818207" filterUnits="userSpaceOnUse" color-interpolation-filters="sRGB">
			<feFlood flood-opacity="0" result="BackgroundImageFix"/>
			<feColorMatrix in="SourceAlpha" type="matrix" values="0 0 0 0 0 0 0 0 0 0 0 0 0 0 0 0 0 0 127 0" result="hardAlpha"/>
			<feOffset dx="0" dy="4"/>
			<feGaussianBlur stdDeviation="2"/>
			<feComposite in2="hardAlpha" operator="out" k2="-1" k3="1"/>
			<feColorMatrix type="matrix" values="0 0 0 0 0 0 0 0 0 0 0 0 0 0 0 0 0 0 0.25 0"/>
			<feBlend mode="normal" in2="BackgroundImageFix" result="effect_dropShadow_1"/>
			<feBlend mode="normal" in="SourceGraphic" in2="effect_dropShadow_1" result="shape"/>
		</filter>
		<filter id="filter_2_9_dd" x="30.068207" y="29.015091" width="142.150787" height="81.818207" filterUnits="userSpaceOnUse" color-interpolation-filters="sRGB">
			<feFlood flood-opacity="0" result="BackgroundImageFix"/>
			<feColorMatrix in="SourceAlpha" type="matrix" values="0 0 0 0 0 0 0 0 0 0 0 0 0 0 0 0 0 0 127 0" result="hardAlpha"/>
			<feOffset dx="0" dy="4"/>
			<feGaussianBlur stdDeviation="2"/>
			<feComposite in2="hardAlpha" operator="out" k2="-1" k3="1"/>
			<feColorMatrix type="matrix" values="0 0 0 0 0 0 0 0 0 0 0 0 0 0 0 0 0 0 0.25 0"/>
			<feBlend mode="normal" in2="BackgroundImageFix" result="effect_dropShadow_1"/>
			<feBlend mode="normal" in="SourceGraphic" in2="effect_dropShadow_1" result="shape"/>
		</filter>
		<filter id="filter_2_11_dd" x="164.000000" y="24.833298" width="14.000000" height="87.000000" filterUnits="userSpaceOnUse" color-interpolation-filters="sRGB">
			<feFlood flood-opacity="0" result="BackgroundImageFix"/>
			<feBlend mode="normal" in="SourceGraphic" in2="BackgroundImageFix" result="shape"/>
			<feGaussianBlur stdDeviation="2" result="effect_layerBlur_1"/>
		</filter>
		<filter id="filter_2_13_dd" x="48.500000" y="25.833298" width="14.000000" height="65.000000" filterUnits="userSpaceOnUse" color-interpolation-filters="sRGB">
			<feFlood flood-opacity="0" result="BackgroundImageFix"/>
			<feBlend mode="normal" in="SourceGraphic" in2="BackgroundImageFix" result="shape"/>
			<feGaussianBlur stdDeviation="2" result="effect_layerBlur_1"/>
		</filter>
		<filter id="filter_2_15_dd" x="49.000000" y="78.333298" width="38.000000" height="15.000000" filterUnits="userSpaceOnUse" color-interpolation-filters="sRGB">
			<feFlood flood-opacity="0" result="BackgroundImageFix"/>
			<feBlend mode="normal" in="SourceGraphic" in2="BackgroundImageFix" result="shape"/>
			<feGaussianBlur stdDeviation="2" result="effect_layerBlur_1"/>
		</filter>
		<filter id="filter_2_17_dd" x="105.070045" y="24.465641" width="30.859917" height="55.734829" filterUnits="userSpaceOnUse" color-interpolation-filters="sRGB">
			<feFlood flood-opacity="0" result="BackgroundImageFix"/>
			<feBlend mode="normal" in="SourceGraphic" in2="BackgroundImageFix" result="shape"/>
			<feGaussianBlur stdDeviation="2" result="effect_layerBlur_1"/>
		</filter>
	</defs>
	<rect id="фон" x="17.000000" y="14.833298" width="163.000000" height="115.000000" fill="#5F3B8A" fill-opacity="1.000000"/>
	<g filter="url(#filter_2_3_dd)">
		<g filter="url(#filter_2_5_dd)">
			<path id="path" d="M36.06 105.83L36.06 36.01L50.82 36.01L50.82 93.66L80.76 93.66L80.76 105.83L36.06 105.83ZM90.53 36.01L108.74 36.01L127.96 82.92L128.78 82.92L148.01 36.01L166.21 36.01L166.21 105.83L151.9 105.83L151.9 60.39L151.32 60.39L133.25 105.49L123.5 105.49L105.43 60.21L104.85 60.21L104.85 105.83L90.53 105.83L90.53 36.01Z" fill="#E8D7FF" fill-opacity="1.000000" fill-rule="nonzero"/>
		</g>
		<g filter="url(#filter_2_7_dd)">
			<path id="path" d="M36.06 103.83L36.06 34.01L50.82 34.01L50.82 91.66L80.76 91.66L80.76 103.83L36.06 103.83ZM90.53 34.01L108.74 34.01L127.96 80.92L128.78 80.92L148.01 34.01L166.21 34.01L166.21 103.83L151.9 103.83L151.9 58.39L151.32 58.39L133.25 103.49L123.5 103.49L105.43 58.21L104.85 58.21L104.85 103.83L90.53 103.83L90.53 34.01Z" fill="#E8D7FF" fill-opacity="1.000000" fill-rule="nonzero"/>
		</g>
		<g filter="url(#filter_2_9_dd)">
			<path id="path" d="M36.06 100.83L36.06 31.01L50.82 31.01L50.82 88.66L80.76 88.66L80.76 100.83L36.06 100.83ZM90.53 31.01L108.74 31.01L127.96 77.92L128.78 77.92L148.01 31.01L166.21 31.01L166.21 100.83L151.9 100.83L151.9 55.39L151.32 55.39L133.25 100.49L123.5 100.49L105.43 55.21L104.85 55.21L104.85 100.83L90.53 100.83L90.53 31.01Z" fill="#E8D7FF" fill-opacity="1.000000" fill-rule="nonzero"/>
		</g>
	</g>
	<g filter="url(#filter_2_11_dd)">
		<line id="line" x1="171.000000" y1="105.833298" x2="171.000000" y2="30.833298" stroke="#9B4DFF" stroke-opacity="1.000000" stroke-width="2.000000"/>
	</g>
	<g filter="url(#filter_2_13_dd)">
		<line id="line" x1="55.500000" y1="84.833298" x2="55.500000" y2="31.833298" stroke="#9B4DFF" stroke-opacity="1.000000" stroke-width="2.000000"/>
	</g>
	<g filter="url(#filter_2_15_dd)">
		<line id="line" x1="81.000000" y1="85.333298" x2="55.000000" y2="85.333298" stroke="#9B4DFF" stroke-opacity="1.000000" stroke-width="2.000000"/>
	</g>
	<g filter="url(#filter_2_17_dd)">
		<line id="line" x1="129.000000" y1="73.832809" x2="112.000008" y2="30.833302" stroke="#9B4DFF" stroke-opacity="1.000000" stroke-width="2.000000"/>
	</g>
	<path id="иконка" d="M0 171.66L0 17.16C0 12.44 1.95 8.4 5.87 5.04C9.79 1.68 14.5 0 20 0L180 0C185.5 0 190.2 1.68 194.12 5.04C198.04 8.4 200 12.44 200 17.16L200 120.16C200 124.88 198.04 128.92 194.12 132.28C190.2 135.65 185.5 137.33 180 137.33L40 137.33L0 171.66ZM31.5 120.16L180 120.16L180 17.16L20 17.16L20 129.82L31.5 120.16Z" fill="#9B4DFF" fill-opacity="1.000000" fill-rule="nonzero"/>
</svg>
